# xmcd
#
# Track frame offsets:
#	150
#	23452
#	41899
#	58122
#	89509
#	109625
#	128046
#	149875
#	165992
#	182138
#	205167
#	223215
#	243341
#
# Disc length: 3459 seconds
#
# Revision: 1
# Processed by: cddbd v1.5.2PL0 Copyright (c) Steve Scherf et al.
# Submitted via: audiograbber 1.83.01
#
DISCID=be0d810d
DTITLE=Barclay James Harvest - Gone To Earth [Deluxe Edition ] [CD 1) [Original
DTITLE=Stereo Mix - remastered 2003]
DYEAR=1977
DGENRE=Progressive Rock
TTITLE0=Hymn
TTITLE1=Love Is Like A Violin
TTITLE2=Friend Of Mine
TTITLE3=Poor Man's Moody Blues
TTITLE4=Hard Hearted Woman
TTITLE5=Sea Of Tranquility
TTITLE6=Spirit On The Water
TTITLE7=Leper's Song
TTITLE8=Taking Me Higher
TTITLE9=Bonus Track: Lied
TTITLE10=Bonus Track: Our Kid's Kid [single B-side]
TTITLE11=Bonus Track: Hymn [single edit]
TTITLE12=Bonus Track: Friend Of Mine [single version]
EXTD=
EXTT0=
EXTT1=
EXTT2=
EXTT3=
EXTT4=
EXTT5=
EXTT6=
EXTT7=
EXTT8=
EXTT9=
EXTT10=
EXTT11=
EXTT12=
PLAYORDER=
